<svg xmlns="http://www.w3.org/2000/svg" viewBox="0 0 800 600" fill="none">
  <rect width="800" height="600" fill="#f8fafc"/>
  <rect width="800" height="600" fill="url(#gradient)"/>
  <defs>
    <linearGradient id="gradient" x1="0%" y1="0%" x2="100%" y2="100%">
      <stop offset="0%" style="stop-color:#1e3a8a;stop-opacity:0.1" />
      <stop offset="100%" style="stop-color:#10b981;stop-opacity:0.1" />
    </linearGradient>
  </defs>
  
  <!-- Window -->
  <rect x="100" y="80" width="600" height="440" rx="12" fill="white" stroke="#e2e8f0" stroke-width="2"/>
  
  <!-- Header -->
  <rect x="100" y="80" width="600" height="50" rx="12" fill="#f1f5f9"/>
  <rect x="100" y="118" width="600" height="12" fill="#f1f5f9"/>
  
  <!-- Dots -->
  <circle cx="130" cy="105" r="6" fill="#ef4444"/>
  <circle cx="150" cy="105" r="6" fill="#f59e0b"/>
  <circle cx="170" cy="105" r="6" fill="#10b981"/>
  
  <!-- Title -->
  <rect x="350" y="95" width="100" height="20" rx="4" fill="#94a3b8"/>
  
  <!-- Sidebar -->
  <rect x="100" y="130" width="180" height="390" fill="#f8fafc"/>
  <rect x="100" y="130" width="2" height="390" fill="#e2e8f0"/>
  
  <!-- Sidebar Header -->
  <rect x="120" y="150" width="140" height="16" rx="4" fill="#cbd5e1"/>
  
  <!-- MST Items -->
  <rect x="120" y="180" width="140" height="40" rx="8" fill="#2563eb"/>
  <circle cx="140" cy="200" r="5" fill="#10b981"/>
  <rect x="155" y="192" width="80" height="12" rx="4" fill="white"/>
  
  <rect x="120" y="230" width="140" height="40" rx="8" fill="white" stroke="#e2e8f0"/>
  <circle cx="140" cy="250" r="5" fill="#f59e0b"/>
  <rect x="155" y="242" width="80" height="12" rx="4" fill="#94a3b8"/>
  
  <rect x="120" y="280" width="140" height="40" rx="8" fill="white" stroke="#e2e8f0"/>
  <circle cx="140" cy="300" r="5" fill="#94a3b8"/>
  <rect x="155" y="292" width="80" height="12" rx="4" fill="#94a3b8"/>
  
  <!-- Main Content -->
  <rect x="300" y="150" width="200" height="24" rx="4" fill="#1e293b"/>
  
  <!-- Form -->
  <rect x="300" y="190" width="380" height="60" rx="8" fill="#f8fafc" stroke="#e2e8f0"/>
  <rect x="320" y="205" width="80" height="12" rx="4" fill="#94a3b8"/>
  <rect x="320" y="225" width="340" height="16" rx="4" fill="#e2e8f0"/>
  
  <rect x="300" y="260" width="380" height="60" rx="8" fill="#f8fafc" stroke="#e2e8f0"/>
  <rect x="320" y="275" width="80" height="12" rx="4" fill="#94a3b8"/>
  <rect x="320" y="295" width="340" height="16" rx="4" fill="#e2e8f0"/>
  
  <!-- Button -->
  <rect x="300" y="340" width="380" height="50" rx="8" fill="#2563eb"/>
  <rect x="450" y="355" width="80" height="16" rx="4" fill="white"/>
  
  <!-- Progress -->
  <rect x="300" y="410" width="380" height="8" rx="4" fill="#e2e8f0"/>
  <rect x="300" y="410" width="285" height="8" rx="4" fill="#2563eb"/>
  
  <rect x="450" y="430" width="80" height="12" rx="4" fill="#94a3b8"/>
  
  <!-- Stats -->
  <rect x="300" y="460" width="110" height="50" rx="8" fill="#f0fdf4" stroke="#bbf7d0"/>
  <rect x="320" y="475" width="60" height="10" rx="4" fill="#10b981"/>
  <rect x="320" y="490" width="80" height="8" rx="4" fill="#86efac"/>
  
  <rect x="430" y="460" width="110" height="50" rx="8" fill="#eff6ff" stroke="#bfdbfe"/>
  <rect x="450" y="475" width="60" height="10" rx="4" fill="#3b82f6"/>
  <rect x="450" y="490" width="80" height="8" rx="4" fill="#93c5fd"/>
  
  <rect x="560" y="460" width="110" height="50" rx="8" fill="#fffbeb" stroke="#fde68a"/>
  <rect x="580" y="475" width="60" height="10" rx="4" fill="#f59e0b"/>
  <rect x="580" y="490" width="80" height="8" rx="4" fill="#fcd34d"/>
</svg>
